#N canvas 196 157 721 705 10;
#X obj 181 210 f \$1;
#X obj 312 411 line~;
#X obj 216 337 pack 0 \$2;
#X text 159 70 Attack level;
#X obj 280 105 inlet;
#X obj 423 208 f \$4;
#X obj 323 337 pack 0 \$3;
#X obj 363 103 inlet;
#X text 343 103 Td;
#X text 260 105 Ta;
#X obj 423 233 * 0.01;
#X obj 423 259 * \$1;
#X obj 504 337 pack 0 \$5;
#X obj 590 298 inlet;
#X text 569 299 Tr;
#X obj 83 39 inlet teigger;
#X msg 55 103 stop;
#X obj 83 72 sel 0;
#X obj 423 178 delay \$2;
#X obj 237 70 inlet;
#X obj 534 164 inlet;
#X text 514 165 Ls;
#X obj 312 458 outlet~;
#X text 39 39 on/off;
#X obj 145 101 trigger b;
#X connect 0 0 2 0;
#X connect 1 0 22 0;
#X connect 2 0 1 0;
#X connect 4 0 2 1;
#X connect 4 0 18 1;
#X connect 5 0 10 0;
#X connect 6 0 1 0;
#X connect 7 0 6 1;
#X connect 10 0 11 0;
#X connect 11 0 6 0;
#X connect 12 0 1 0;
#X connect 13 0 12 1;
#X connect 15 0 17 0;
#X connect 16 0 18 0;
#X connect 17 0 16 0;
#X connect 17 0 12 0;
#X connect 17 1 24 0;
#X connect 18 0 5 0;
#X connect 19 0 0 1;
#X connect 20 0 5 1;
#X connect 24 0 0 0;
#X connect 24 0 18 0;
