#N canvas 1015 657 840 492 10;
#X obj 425 230 line~;
#X obj 425 206 pack 0 100;
#X obj 506 330 line~;
#X obj 506 306 pack 0 100;
#X obj 506 282 * 0.01;
#X obj 485 356 *~;
#X obj 350 248 *~;
#X obj 350 176 / 100;
#X obj 350 224 +~ 1;
#X obj 350 200 osc~ 0;
#X obj 350 272 +~ 1.46;
#X text 397 140 <-- cycle frequency (hundredths);
#X text 478 183 <-- cycle depth (msec);
#X text 555 259 <-- feedback (hundredths);
#X obj 344 298 vd~ G03-del;
#X obj 485 404 delwrite~ G03-del 1000;
#X obj 485 380 clip~ -1 1;
#X obj 349 143 inlet;
#X obj 433 183 inlet;
#X obj 506 258 inlet;
#X obj 125 182 inlet~;
#X obj 147 331 +~;
#X obj 139 400 outlet~;
#X connect 0 0 6 1;
#X connect 1 0 0 0;
#X connect 2 0 5 1;
#X connect 3 0 2 0;
#X connect 4 0 3 0;
#X connect 5 0 16 0;
#X connect 6 0 10 0;
#X connect 7 0 9 0;
#X connect 8 0 6 0;
#X connect 9 0 8 0;
#X connect 10 0 14 0;
#X connect 14 0 21 1;
#X connect 16 0 15 0;
#X connect 17 0 7 0;
#X connect 18 0 1 0;
#X connect 19 0 4 0;
#X connect 20 0 21 0;
#X connect 21 0 5 0;
#X connect 21 0 22 0;
