#N canvas 701 613 824 647 10;
#X obj 126 126 delwrite~ delay1 1000;
#X obj 92 228 +~;
#X obj 134 198 delread~ delay1;
#X obj 91 95 inlet~;
#X obj 207 162 inlet;
#X obj 92 292 outlet~;
#X connect 1 0 5 0;
#X connect 2 0 1 1;
#X connect 3 0 0 0;
#X connect 3 0 1 0;
#X connect 4 0 2 0;
