#N canvas 1449 445 678 510 10;
#X obj 218 103 fiddle~ 2048;
#X obj 286 126 unpack;
#X obj 286 150 moses 1;
#X obj 359 128 mtof;
#X obj 412 177 samplerate~;
#X obj 359 176 t f b;
#X obj 219 78 delwrite~ G06-del 100;
#X obj 239 254 delread~ G06-del;
#X obj 261 302 vd~ G06-del;
#X obj 238 326 +~;
#X obj 390 230 +;
#X obj 359 151 expr 500/$f1;
#X obj 390 282 line~;
#X obj 390 259 pack 0 20;
#X text 403 128 fundamental frequency;
#X text 471 151 1/2 period \, in msec;
#X text 446 221 estimate fiddle~ delay;
#X obj 412 203 expr 2048000/$f1;
#X text 448 236 as one window (in msec);
#X obj 134 30 inlet~;
#X obj 152 401 outlet~;
#X connect 0 2 1 0;
#X connect 1 0 2 0;
#X connect 2 1 3 0;
#X connect 3 0 11 0;
#X connect 4 0 17 0;
#X connect 5 0 10 0;
#X connect 5 1 4 0;
#X connect 7 0 9 0;
#X connect 8 0 9 1;
#X connect 9 0 20 0;
#X connect 10 0 13 0;
#X connect 11 0 5 0;
#X connect 12 0 8 0;
#X connect 13 0 12 0;
#X connect 17 0 10 1;
#X connect 17 0 7 0;
#X connect 19 0 6 0;
#X connect 19 0 0 0;
