#N canvas 662 634 458 425 10;
#X obj 133 186 +~;
#X obj 199 140 delread~ delay1;
#X obj 172 234 delwrite~ delay1 2000;
#X obj 134 35 inlet~;
#X obj 132 318 outlet~;
#X obj 200 169 *~ \$1;
#X obj 199 96 inlet;
#X connect 0 0 2 0;
#X connect 0 0 4 0;
#X connect 1 0 5 0;
#X connect 3 0 0 0;
#X connect 5 0 0 1;
#X connect 6 0 1 0;
