#N canvas 93 23 1308 855 10;
#X msg 34 20 \; pd dsp 1;
#X msg 106 20 \; pd dsp 0;
#X obj 473 222 *~;
#X obj 473 297 osc~ 440;
#X obj 361 333 *~;
#X obj 361 385 dac~;
#X obj 424 88 tgl 15 0 empty empty empty 17 7 0 10 -262144 -1 -1 0
1;
#X text 558 302 main frequency;
#X text 538 261 central frequency;
#X text 633 184 modulation frequency;
#X text 424 129 P8;
#X text 551 185 P6;
#X text 387 87 Brass;
#X obj 182 214 adsr~ 1 166 166 60 166;
#X text 233 234 P3;
#X text 448 263 P5;
#X obj 477 574 *~;
#X obj 365 685 *~;
#X obj 365 737 dac~;
#X obj 363 436 tgl 15 0 empty empty empty 17 7 0 10 -262144 -1 -1 0
1;
#X text 562 654 main frequency;
#X text 542 613 central frequency;
#X text 637 536 modulation frequency;
#X text 428 481 P8;
#X text 555 537 P6;
#X text 237 586 P3;
#X text 452 615 P5;
#X text 304 435 Woodwind;
#X obj 381 151 adsr~ 2200 166 166 60 166;
#X obj 473 261 +~ 440;
#X obj 576 184 osc~ 440;
#X obj 477 613 +~ 900;
#X obj 579 536 osc~ 300;
#X obj 186 566 adsr~ 1 100 100 100 100;
#X obj 385 503 adsr~ 600 100 100 100 100;
#X text 469 472 sustain level ↓;
#X obj 959 388 *~;
#X obj 847 499 *~;
#X obj 847 551 dac~;
#X text 1044 468 main frequency;
#X text 1024 427 central frequency;
#X text 1119 350 modulation frequency;
#X text 910 295 P8;
#X text 1037 351 P6;
#X text 719 400 P3;
#X text 934 429 P5;
#X text 786 141 Percussion;
#X obj 959 427 +~ 200;
#X obj 1061 350 osc~ 280;
#X text 951 286 sustain level ↓;
#X obj 863 138 tgl 15 0 empty empty empty 17 7 0 10 -262144 -1 -1 0
1;
#X obj 959 463 osc~ 200;
#X obj 675 381 adsr~ 1 0 150000 0 0;
#X obj 867 317 adsr~ 2800 0 15000 0 0;
#X text 22 71 P1 = Begin time of instrument P2 = Instrument number
P3 = Duration of the "note" P4 = Amplitude of the output wave P: \;
= Carrier frequency P6 = Modulating frequency P7 = Modulation index
1 \, I1 P8 = Modulation index 2 \, I2;
#X obj 477 649 osc~ 900;
#X connect 2 0 29 0;
#X connect 3 0 4 1;
#X connect 4 0 5 0;
#X connect 4 0 5 1;
#X connect 6 0 13 0;
#X connect 6 0 28 0;
#X connect 13 0 4 0;
#X connect 16 0 31 0;
#X connect 17 0 18 0;
#X connect 17 0 18 1;
#X connect 19 0 33 0;
#X connect 19 0 34 0;
#X connect 28 0 2 0;
#X connect 29 0 3 0;
#X connect 30 0 2 1;
#X connect 31 0 55 0;
#X connect 32 0 16 1;
#X connect 33 0 17 0;
#X connect 34 0 16 0;
#X connect 36 0 47 0;
#X connect 37 0 38 0;
#X connect 37 0 38 1;
#X connect 47 0 51 0;
#X connect 48 0 36 1;
#X connect 50 0 52 0;
#X connect 50 0 53 0;
#X connect 51 0 37 1;
#X connect 52 0 37 0;
#X connect 53 0 36 0;
#X connect 55 0 17 1;
