#N canvas 43 362 435 467 10;
#X msg 15 11 \; pd dsp 1;
#X msg 103 12 \; pd dsp 0;
#X obj 79 121 noise~;
#X obj 79 161 lop~ 300;
#X text 24 162 low pass;
#X obj 111 234 *~;
#X obj 108 328 dac~;
#X obj 168 101 lfo~;
#X msg 168 72 0.2;
#X obj 112 283 *~;
#X msg 169 263 0;
#X msg 169 230 0.5;
#X connect 2 0 3 0;
#X connect 3 0 5 0;
#X connect 5 0 9 0;
#X connect 7 0 5 1;
#X connect 8 0 7 0;
#X connect 9 0 6 0;
#X connect 9 0 6 1;
#X connect 10 0 9 1;
#X connect 11 0 9 1;
