#N canvas 200 23 988 855 10;
#X msg 26 4 \; pd dsp 0;
#X msg 129 4 \; pd dsp 1;
#X obj 15 272 dac~;
#X obj 15 233 *~;
#X obj 109 82 key;
#X obj 109 138 trigger b b;
#X obj 132 212 line~;
#X obj 397 10 key;
#X floatatom 397 42 5 0 0 0 - - -, f 5;
#X obj 109 109 select 97;
#X obj 672 280 dac~;
#X obj 672 241 *~;
#X obj 766 90 key;
#X obj 766 146 trigger b b;
#X obj 789 220 line~;
#X obj 18 518 dac~;
#X obj 18 481 *~;
#X obj 112 342 key;
#X obj 112 390 trigger b b;
#X obj 136 462 line~;
#X obj 112 367 select 102;
#X obj 343 525 dac~;
#X obj 343 488 *~;
#X obj 437 349 key;
#X obj 437 397 trigger b b;
#X obj 461 469 line~;
#X obj 671 529 dac~;
#X obj 671 492 *~;
#X obj 765 353 key;
#X obj 765 401 trigger b b;
#X obj 789 473 line~;
#X obj 33 774 dac~;
#X obj 33 737 *~;
#X obj 130 597 key;
#X obj 130 645 trigger b b;
#X obj 151 716 line~;
#X obj 437 374 select 103;
#X obj 765 378 select 104;
#X obj 130 622 select 106;
#X obj 492 775 dac~;
#X obj 492 738 *~;
#X obj 589 598 key;
#X obj 589 646 trigger b b;
#X obj 610 717 line~;
#X obj 589 623 select 107;
#X obj 347 282 dac~;
#X obj 347 243 *~;
#X obj 441 92 key;
#X obj 441 148 trigger b b;
#X obj 464 222 line~;
#X obj 441 119 select 115;
#X text 444 23 <-get key`ASCII;
#X msg 81 170 1 20;
#X msg 190 186 0 20;
#X msg 413 180 1 20;
#X msg 522 196 0 20;
#X msg 847 194 0 20;
#X msg 738 178 1 20;
#X msg 82 423 1 20;
#X msg 191 435 0 20;
#X msg 407 430 1 20;
#X msg 516 443 0 20;
#X msg 735 434 1 20;
#X msg 844 447 0 20;
#X msg 100 676 1 20;
#X msg 209 692 0 20;
#X msg 559 677 1 20;
#X msg 668 693 0 20;
#X obj 766 117 select 100;
#X obj 14 195 osc~ 261.626;
#X obj 346 205 osc~ 293.665;
#X obj 671 203 osc~ 329.628;
#X obj 343 459 osc~ 391.995;
#X obj 671 456 osc~ 440;
#X obj 18 450 osc~ 349.228;
#X obj 33 702 osc~ 493.883;
#X obj 492 705 osc~ 523.251;
#X obj 190 161 delay 250;
#X obj 522 169 delay 250;
#X obj 847 169 delay 250;
#X obj 191 413 delay 250;
#X obj 516 420 delay 250;
#X obj 844 425 delay 250;
#X obj 209 667 delay 250;
#X obj 668 668 delay 250;
#X text 197 108 <-C \, key_a;
#X text 529 119 <-D \, key_s;
#X text 854 117 <-E \, key_d;
#X text 200 367 <-F \, key_f;
#X text 525 374 <-G \, key_g;
#X text 853 378 <-A \, key_h;
#X text 218 622 <-B \, key_j;
#X text 677 623 <-C \, key_k;
#X connect 3 0 2 0;
#X connect 3 0 2 1;
#X connect 4 0 9 0;
#X connect 5 0 52 0;
#X connect 5 1 77 0;
#X connect 6 0 3 1;
#X connect 7 0 8 0;
#X connect 9 0 5 0;
#X connect 11 0 10 0;
#X connect 11 0 10 1;
#X connect 12 0 68 0;
#X connect 13 0 57 0;
#X connect 13 1 79 0;
#X connect 14 0 11 1;
#X connect 16 0 15 0;
#X connect 16 0 15 1;
#X connect 17 0 20 0;
#X connect 18 0 58 0;
#X connect 18 1 80 0;
#X connect 19 0 16 1;
#X connect 20 0 18 0;
#X connect 22 0 21 0;
#X connect 22 0 21 1;
#X connect 23 0 36 0;
#X connect 24 0 60 0;
#X connect 24 1 81 0;
#X connect 25 0 22 1;
#X connect 27 0 26 0;
#X connect 27 0 26 1;
#X connect 28 0 37 0;
#X connect 29 0 62 0;
#X connect 29 1 82 0;
#X connect 30 0 27 1;
#X connect 32 0 31 0;
#X connect 32 0 31 1;
#X connect 33 0 38 0;
#X connect 34 0 64 0;
#X connect 34 1 83 0;
#X connect 35 0 32 1;
#X connect 36 0 24 0;
#X connect 37 0 29 0;
#X connect 38 0 34 0;
#X connect 40 0 39 0;
#X connect 40 0 39 1;
#X connect 41 0 44 0;
#X connect 42 0 66 0;
#X connect 42 1 84 0;
#X connect 43 0 40 1;
#X connect 44 0 42 0;
#X connect 46 0 45 0;
#X connect 46 0 45 1;
#X connect 47 0 50 0;
#X connect 48 0 54 0;
#X connect 48 1 78 0;
#X connect 49 0 46 1;
#X connect 50 0 48 0;
#X connect 52 0 6 0;
#X connect 53 0 6 0;
#X connect 54 0 49 0;
#X connect 55 0 49 0;
#X connect 56 0 14 0;
#X connect 57 0 14 0;
#X connect 58 0 19 0;
#X connect 59 0 19 0;
#X connect 60 0 25 0;
#X connect 61 0 25 0;
#X connect 62 0 30 0;
#X connect 63 0 30 0;
#X connect 64 0 35 0;
#X connect 65 0 35 0;
#X connect 66 0 43 0;
#X connect 67 0 43 0;
#X connect 68 0 13 0;
#X connect 69 0 3 0;
#X connect 70 0 46 0;
#X connect 71 0 11 0;
#X connect 72 0 22 0;
#X connect 73 0 27 0;
#X connect 74 0 16 0;
#X connect 75 0 32 0;
#X connect 76 0 40 0;
#X connect 77 0 53 0;
#X connect 78 0 55 0;
#X connect 79 0 56 0;
#X connect 80 0 59 0;
#X connect 81 0 61 0;
#X connect 82 0 63 0;
#X connect 83 0 65 0;
#X connect 84 0 67 0;
