#N canvas 93 43 1131 783 10;
#X msg 677 13 \; pd dsp 1;
#X msg 677 61 \; pd dsp 0;
#X obj 83 148 *~;
#X obj 343 635 dac~;
#X obj 140 48 tgl 15 0 empty empty empty 17 7 0 10 -262144 -1 -1 0
1;
#X obj 44 47 noise~;
#X obj 301 188 noise~;
#X obj 345 264 *~;
#X obj 401 190 tgl 15 0 empty empty empty 17 7 0 10 -262144 -1 -1 0
1;
#X obj 401 131 tgl 15 0 empty empty empty 17 7 0 10 -262144 -1 -1 0
1;
#X obj 401 160 metro 600;
#X obj 301 224 bp~ 180 7;
#X text 162 47 wind;
#X obj 210 362 +~, f 4;
#X text 371 130 rail;
#X obj 478 341 noise~;
#X obj 533 414 *~;
#X obj 608 343 tgl 15 0 empty empty empty 17 7 0 10 -262144 -1 -1 0
1;
#X obj 608 378 adsr~ 1 300 200 80 800;
#X obj 352 558 +~;
#X obj 478 373 bp~ 400 7;
#X obj 533 443 *~ 3;
#X obj 140 81 adsr~ 1 2000 8000 50 5000;
#X obj 401 225 adsr~ 1 300 200 80 600;
#X text 562 343 tunnel;
#X obj 83 186 *~ 15;
#X obj 345 292 *~ 5;
#X obj 44 85 bp~ 1000 10;
#X obj 440 600 dac~;
#X obj 443 507 lop~ 200;
#X obj 859 609 dac~;
#X obj 803 405 noise~;
#X obj 858 478 *~;
#X obj 933 407 tgl 15 0 empty empty empty 17 7 0 10 -262144 -1 -1 0
1;
#X obj 933 442 adsr~ 1 300 200 80 800;
#X obj 803 437 bp~ 400 7;
#X obj 858 507 *~ 3;
#X text 887 407 tunnel;
#X connect 2 0 25 0;
#X connect 4 0 22 0;
#X connect 5 0 27 0;
#X connect 6 0 11 0;
#X connect 7 0 26 0;
#X connect 8 0 23 0;
#X connect 9 0 10 0;
#X connect 10 0 8 0;
#X connect 11 0 7 0;
#X connect 13 0 19 0;
#X connect 15 0 20 0;
#X connect 16 0 21 0;
#X connect 17 0 18 0;
#X connect 18 0 16 1;
#X connect 19 0 3 0;
#X connect 19 0 3 1;
#X connect 20 0 16 0;
#X connect 21 0 29 0;
#X connect 22 0 2 1;
#X connect 23 0 7 1;
#X connect 25 0 13 0;
#X connect 26 0 13 1;
#X connect 27 0 2 0;
#X connect 29 0 28 0;
#X connect 29 0 28 1;
#X connect 31 0 35 0;
#X connect 32 0 36 0;
#X connect 33 0 34 0;
#X connect 34 0 32 1;
#X connect 35 0 32 0;
#X connect 36 0 30 0;
#X connect 36 0 30 1;
