#N canvas 0 23 1280 719 10;
#N canvas 0 50 450 250 (subpatch) 0;
#X array channelL 263680 float 0;
#X coords 0 1 263679 -1 200 140 1 0 0;
#X restore 953 291 graph;
#N canvas 0 50 450 250 (subpatch) 0;
#X array channelR 263680 float 0;
#X coords 0 1 263679 -1 200 140 1;
#X restore 957 469 graph;
#X obj 791 443 r~ progressbar;
#X obj 782 471 metro 50;
#X obj 792 502 snapshot~;
#X obj 754 457 tgl 15 0 empty empty empty 17 7 0 10 -262144 -1 -1 1
1;
#X floatatom 792 536 5 0 0 0 - - -, f 5;
#X obj 792 578 /;
#X obj 816 555 r sampleSize;
#X floatatom 792 610 5 0 0 0 - - -, f 5;
#X obj 792 649 s progress;
#X obj 963 644 hsl 200 15 0 1 0 0 empty empty empty -2 -8 0 10 -262144
-1 -1 4979 1;
#X obj 88 100 tgl 15 0 empty empty empty 17 7 0 10 -262144 -1 -1 0
1;
#X msg 88 144 \; pd dsp \$1;
#X obj 275 67 bng 15 250 50 0 empty empty empty 17 7 0 10 -262144 -1
-1;
#X obj 275 108 openpanel;
#X msg 275 144 read -resize \$1 channelL channelR;
#X obj 275 179 soundfiler;
#X floatatom 314 223 5 0 0 0 - - -, f 5;
#X obj 314 250 s sampleSize;
#X obj 275 284 expr 44100 / $f1;
#X floatatom 211 302 5 0 0 0 - - -, f 5;
#X obj 272 352 phasor~;
#X obj 272 393 *~;
#X obj 325 376 r sampleSize;
#X obj 298 440 s~ progressbar;
#X obj 272 532 tabread4~ channelL;
#X obj 292 489 tabread4~ channelR;
#X obj 272 601 *~;
#X obj 327 602 *~;
#X obj 447 446 vsl 15 128 0 1 0 0 empty empty empty 0 -9 0 10 -262144
-1 -1 9200 1;
#X obj 273 654 dac~;
#X floatatom 132 339 5 0 0 0 - - -, f 5;
#X obj 534 332 hsl 128 15 0 1 0 0 empty empty empty -2 -8 0 10 -262144
-1 -1 5448 1;
#X msg 501 107 1;
#X obj 503 160 metro 120;
#X obj 593 121 hsl 128 15 0 200 0 0 empty empty empty -2 -8 0 10 -262144
-1 -1 1200 1;
#X obj 503 209 random 1000;
#X floatatom 503 247 5 0 0 0 - - -, f 5;
#X obj 503 272 / 1000;
#X floatatom 503 304 5 0 0 0 - - -, f 5;
#X obj 757 326 clip, f 17;
#X obj 797 158 hsl 128 15 0 1 0 0 empty empty empty -2 -8 0 10 -262144
-1 -1 6400 1;
#X floatatom 795 194 5 0 0 0 - - -, f 5;
#X obj 878 195 hsl 128 15 0 0.5 0 0 empty empty empty -2 -8 0 10 -262144
-1 -1 12700 1;
#X obj 875 227 bang;
#X obj 875 251 s jitbang;
#X floatatom 795 290 5 0 0 0 - - -, f 5;
#X floatatom 838 289 5 0 0 0 - - -, f 5;
#X obj 795 252 -;
#X obj 838 250 +;
#X obj 698 160 r jitbang;
#X obj 40 287 hsl 128 15 -2 2 0 0 empty empty empty -2 -8 0 10 -262144
-1 -1 9600 1;
#X obj 150 315 *;
#X msg 30 237 -1;
#X msg 99 237 1;
#X connect 2 0 4 0;
#X connect 3 0 4 0;
#X connect 4 0 6 0;
#X connect 5 0 3 0;
#X connect 6 0 7 0;
#X connect 7 0 9 0;
#X connect 8 0 7 1;
#X connect 9 0 10 0;
#X connect 9 0 11 0;
#X connect 12 0 13 0;
#X connect 14 0 15 0;
#X connect 15 0 16 0;
#X connect 16 0 17 0;
#X connect 17 0 18 0;
#X connect 17 0 20 0;
#X connect 18 0 19 0;
#X connect 20 0 21 0;
#X connect 20 0 22 0;
#X connect 21 0 53 1;
#X connect 22 0 23 0;
#X connect 23 0 25 0;
#X connect 23 0 26 0;
#X connect 23 0 27 0;
#X connect 24 0 23 1;
#X connect 26 0 28 0;
#X connect 27 0 29 0;
#X connect 28 0 31 0;
#X connect 29 0 31 1;
#X connect 30 0 29 1;
#X connect 30 0 28 1;
#X connect 32 0 22 0;
#X connect 34 0 35 0;
#X connect 35 0 37 0;
#X connect 36 0 35 1;
#X connect 37 0 38 0;
#X connect 38 0 39 0;
#X connect 39 0 40 0;
#X connect 40 0 33 0;
#X connect 40 0 41 0;
#X connect 41 0 22 1;
#X connect 42 0 43 0;
#X connect 43 0 49 0;
#X connect 43 0 50 0;
#X connect 44 0 45 0;
#X connect 44 0 50 1;
#X connect 44 0 49 1;
#X connect 45 0 46 0;
#X connect 47 0 41 1;
#X connect 48 0 41 2;
#X connect 49 0 47 0;
#X connect 50 0 48 0;
#X connect 51 0 43 0;
#X connect 52 0 53 0;
#X connect 53 0 32 0;
#X connect 54 0 52 0;
#X connect 55 0 52 0;
