#N canvas 1361 596 488 537 10;
#X obj 146 18 inlet;
#X obj 149 252 vline~;
#X obj 147 62 t b f;
#X obj 145 120 f;
#X obj 174 100 r graindur;
#X obj 181 335 +~;
#X obj 174 401 tabread4~ array1;
#X obj 28 345 *~ 2048;
#X obj 17 381 tabread4~ grain-env;
#X obj 94 425 *~;
#X obj 74 463 throw~ bus;
#X obj 300 74 r filesize;
#X floatatom 221 71 5 0 0 0 - - -, f 5;
#X floatatom 146 40 5 0 0 0 - - -, f 5;
#X floatatom 144 141 5 0 0 0 - - -, f 5;
#X obj 261 120 *;
#X msg 164 216 0 \, 1 \$1;
#X obj 131 304 *~;
#X obj 65 202 * 44.1;
#X obj 70 237 sig~;
#X obj 188 151 r pitch;
#X obj 145 187 *;
#X connect 0 0 13 0;
#X connect 1 0 7 0;
#X connect 1 0 17 0;
#X connect 2 0 3 0;
#X connect 2 1 12 0;
#X connect 3 0 14 0;
#X connect 4 0 3 1;
#X connect 5 0 6 0;
#X connect 6 0 9 1;
#X connect 7 0 8 0;
#X connect 8 0 9 0;
#X connect 9 0 10 0;
#X connect 11 0 15 1;
#X connect 12 0 15 0;
#X connect 13 0 2 0;
#X connect 14 0 18 0;
#X connect 14 0 21 0;
#X connect 15 0 5 1;
#X connect 16 0 1 0;
#X connect 17 0 5 0;
#X connect 18 0 19 0;
#X connect 19 0 17 1;
#X connect 20 0 21 1;
#X connect 21 0 16 0;
