#N canvas 155 23 1227 853 10;
#X obj 157 453 soundfiler;
#X floatatom 157 479 5 0 0 0 - - -, f 5;
#X obj 157 505 expr 44100 / $f1;
#X obj 155 617 *~;
#X obj 155 573 phasor~;
#X text 196 479 size of sound file;
#X text 197 544 runs at original speed;
#X floatatom 156 545 5 0 0 0 - - -, f 5;
#X obj 155 662 tabread4~ array1;
#N canvas 0 50 450 278 (subpatch) 0;
#X array array1 642500 float 2;
#X coords 0 1 642500 -1 200 140 1;
#X restore 960 38 graph;
#X obj 282 459 s filesize;
#X obj 417 192 hsl 128 15 10 2000 0 0 empty empty empty -2 -8 0 10
-262144 -1 -1 8822 1;
#X floatatom 389 217 5 0 0 0 - - -, f 5;
#X obj 469 261 s graindur;
#X obj 579 193 hsl 128 15 0 1.2 0 0 empty empty empty -2 -8 0 10 -262144
-1 -1 10856 1;
#X floatatom 564 220 5 0 0 0 - - -, f 5;
#X obj 606 330 r graindur;
#X obj 659 366 /;
#X obj 702 364 bang;
#X obj 601 508 r~ progress;
#X obj 601 547 snapshot~;
#X floatatom 601 570 5 0 0 0 - - -, f 5;
#X obj 663 588 hsl 128 15 0 1 0 0 empty empty empty -2 -8 0 10 -262144
-1 -1 3119 1;
#X obj 618 264 s density;
#X obj 570 380 tgl 15 0 empty empty empty 17 7 0 10 -262144 -1 -1 1
1;
#X obj 578 422 metro 100;
#X floatatom 640 397 5 0 0 0 - - -, f 5;
#X obj 693 329 r density;
#X obj 375 604 pack f f;
#X floatatom 347 685 5 0 0 0 - - -, f 5;
#X floatatom 401 685 5 0 0 0 - - -, f 5;
#X floatatom 452 684 5 0 0 0 - - -, f 5;
#X floatatom 516 684 5 0 0 0 - - -, f 5;
#X obj 514 462 f;
#X obj 552 462 + 1;
#X obj 516 521 t f b;
#N canvas 0 50 450 300 (subpatch) 0;
#X array grain-env 2048 float 0;
#X coords 0 1 2047 -1 100 100 1;
#X restore 967 210 graph;
#X obj 1099 220 loadbang;
#N canvas 737 338 274 207 make-grain-env 0;
#X obj 16 42 t b b;
#X obj 16 106 f;
#X obj 44 106 + 1;
#X msg 54 63 0;
#X obj 16 85 until;
#X obj 16 127 t f f;
#X obj 16 20 inlet;
#X obj 16 188 tabwrite grain-env;
#X msg 16 63 2048;
#X obj 16 148 expr ($f1-1024)/1024;
#X obj 16 168 expr 0.5+(cos($f1 * 3.141)/2);
#X connect 0 0 8 0;
#X connect 0 1 3 0;
#X connect 1 0 2 0;
#X connect 1 0 5 0;
#X connect 2 0 1 1;
#X connect 3 0 1 1;
#X connect 4 0 1 0;
#X connect 5 0 9 0;
#X connect 5 1 7 1;
#X connect 6 0 0 0;
#X connect 8 0 4 0;
#X connect 9 0 10 0;
#X connect 10 0 7 0;
#X restore 1099 241 pd make-grain-env;
#X obj 796 453 catch~ bus;
#X obj 831 635 dac~;
#X floatatom 632 682 5 0 0 0 - - -, f 5;
#X floatatom 686 682 5 0 0 0 - - -, f 5;
#X floatatom 737 681 5 0 0 0 - - -, f 5;
#X floatatom 801 681 5 0 0 0 - - -, f 5;
#X obj 811 713 grainon;
#X obj 514 489 mod 8;
#X obj 391 632 route 0 1 2 3 4 5 6 7, f 57;
#X obj 775 196 hsl 128 15 0.25 4 0 0 empty empty empty -2 -8 0 10 -262144
-1 -1 10319 1;
#X obj 799 266 s pitch;
#X floatatom 751 221 5 0 0 0 - - -, f 5;
#X obj 326 715 grainon;
#X obj 526 716 grainon;
#X obj 464 718 grainon;
#X obj 395 718 grainon;
#X obj 611 712 grainon;
#X obj 749 715 grainon;
#X obj 680 715 grainon;
#X msg 776 151 1;
#X msg 28 13 \; pd dsp 1;
#X msg 29 55 \; pd dsp 0;
#X obj 212 604 s~ progress;
#X text 684 397 shine gap;
#X obj 583 66 random 100;
#X obj 501 18 tgl 15 0 empty empty empty 17 7 0 10 -262144 -1 -1 0
1;
#X floatatom 646 116 5 0 0 0 - - -, f 5;
#X obj 583 90 / 100;
#X obj 458 223 *;
#X obj 651 225 *;
#X obj 819 236 *;
#X obj 939 559 lop~ 500;
#X obj 836 498 lop~ 500;
#X msg 244 415 read -resize Africadrum.wav array1;
#X msg 153 396 read -resize YW.wav array1;
#X msg 13 374 read -resize partflute.wav array1;
#X obj 141 185 metro 100;
#X obj 86 148 tgl 15 0 empty empty empty 17 7 0 10 -262144 -1 -1 0
1;
#X obj 46 302 tgl 15 0 empty empty empty 17 7 0 10 -262144 -1 -1 1
1;
#X floatatom 238 126 5 0 0 0 - - -, f 5;
#X obj 237 59 bng 15 250 50 0 empty empty empty 17 7 0 10 -262144 -1
-1;
#X obj 213 314 tgl 15 0 empty empty empty 17 7 0 10 -262144 -1 -1 1
1;
#X obj 310 332 tgl 15 0 empty empty empty 17 7 0 10 -262144 -1 -1 1
1;
#X obj 223 159 + 3000;
#X obj 204 274 delay 2500;
#X obj 298 285 delay 3500;
#X obj 237 88 random 3000;
#X obj 482 133 * 2000;
#X obj 583 43 metro 2000;
#X connect 0 0 1 0;
#X connect 0 0 10 0;
#X connect 1 0 2 0;
#X connect 1 0 3 1;
#X connect 2 0 7 0;
#X connect 3 0 8 0;
#X connect 4 0 3 0;
#X connect 4 0 61 0;
#X connect 7 0 4 0;
#X connect 11 0 12 0;
#X connect 11 0 67 0;
#X connect 14 0 15 0;
#X connect 14 0 68 0;
#X connect 16 0 17 0;
#X connect 17 0 26 0;
#X connect 18 0 17 0;
#X connect 19 0 20 0;
#X connect 20 0 21 0;
#X connect 21 0 22 0;
#X connect 21 0 28 1;
#X connect 24 0 25 0;
#X connect 25 0 33 0;
#X connect 26 0 25 1;
#X connect 27 0 17 1;
#X connect 27 0 18 0;
#X connect 28 0 47 0;
#X connect 29 0 51 0;
#X connect 30 0 54 0;
#X connect 31 0 53 0;
#X connect 32 0 52 0;
#X connect 33 0 34 0;
#X connect 33 0 46 0;
#X connect 34 0 33 1;
#X connect 35 0 28 0;
#X connect 35 1 20 0;
#X connect 37 0 38 0;
#X connect 39 0 71 0;
#X connect 39 0 40 0;
#X connect 41 0 55 0;
#X connect 42 0 57 0;
#X connect 43 0 56 0;
#X connect 44 0 45 0;
#X connect 46 0 35 0;
#X connect 47 0 29 0;
#X connect 47 1 30 0;
#X connect 47 2 31 0;
#X connect 47 3 32 0;
#X connect 47 4 41 0;
#X connect 47 5 42 0;
#X connect 47 6 43 0;
#X connect 47 7 44 0;
#X connect 48 0 50 0;
#X connect 48 0 69 0;
#X connect 58 0 48 0;
#X connect 63 0 66 0;
#X connect 64 0 87 0;
#X connect 66 0 65 0;
#X connect 66 0 14 0;
#X connect 66 0 48 0;
#X connect 66 0 86 0;
#X connect 67 0 13 0;
#X connect 68 0 23 0;
#X connect 69 0 49 0;
#X connect 70 0 40 1;
#X connect 71 0 70 0;
#X connect 71 0 40 1;
#X connect 72 0 0 0;
#X connect 73 0 0 0;
#X connect 74 0 0 0;
#X connect 75 0 77 0;
#X connect 75 0 83 0;
#X connect 76 0 75 0;
#X connect 77 0 74 0;
#X connect 78 0 82 0;
#X connect 79 0 85 0;
#X connect 80 0 73 0;
#X connect 81 0 72 0;
#X connect 82 0 75 1;
#X connect 82 0 84 1;
#X connect 83 0 80 0;
#X connect 84 0 81 0;
#X connect 85 0 78 0;
#X connect 86 0 11 0;
#X connect 87 0 63 0;
