#N canvas 95 236 283 429 10;
#X obj 45 362 hip~ 40;
#X obj 45 385 outlet~;
#X obj 23 12 inlet trigger;
#X obj 45 316 *~;
#X obj 45 224 expcurve~ 200;
#X obj 45 270 phasor~;
#X obj 45 293 cos~;
#X obj 45 247 *~;
#X obj 101 248 del 110;
#X obj 113 85 inlet base;
#X obj 44 175 +;
#X obj 101 269 adenv2~ 10 80;
#X obj 23 111 t b f f b f;
#X obj 23 35 unpack f f;
#X obj 23 59 * 0.3;
#X obj 23 82 + 0.3;
#X obj 113 108 * 2000;
#X obj 45 154 * 1000;
#X obj 45 339 *~ 0.1;
#X obj 101 186 random 50;
#X connect 0 0 1 0;
#X connect 2 0 13 0;
#X connect 3 0 18 0;
#X connect 4 0 7 0;
#X connect 5 0 6 0;
#X connect 6 0 3 0;
#X connect 7 0 5 0;
#X connect 8 0 11 0;
#X connect 9 0 16 0;
#X connect 10 0 7 1;
#X connect 11 0 3 1;
#X connect 12 0 4 0;
#X connect 12 1 17 0;
#X connect 12 3 19 0;
#X connect 12 4 11 1;
#X connect 13 0 14 0;
#X connect 14 0 15 0;
#X connect 15 0 12 0;
#X connect 16 0 10 1;
#X connect 17 0 10 0;
#X connect 18 0 0 0;
#X connect 19 0 8 0;
