#N canvas 828 383 268 282 10;
#X obj 12 236 dac~;
#N canvas 392 323 314 499 dripfactory 0;
#N canvas 0 0 425 653 bubble 0;
#X obj 60 475 osc~;
#X obj 60 514 *~;
#X obj 30 61 inlet;
#X obj 60 539 outlet~;
#N canvas 231 126 209 211 env4pow 0;
#X obj 54 61 vline~;
#X obj 53 87 *~;
#X obj 53 112 *~;
#X obj 5 149 -~;
#X obj 5 173 outlet~;
#X msg 54 34 1 0 0 \, 0 \$1 0;
#X obj 54 10 inlet;
#X obj 4 111 sig~ 1;
#X obj 63 173 outlet~;
#X connect 0 0 1 0;
#X connect 0 0 1 1;
#X connect 1 0 2 0;
#X connect 1 0 2 1;
#X connect 2 0 3 1;
#X connect 2 0 8 0;
#X connect 3 0 4 0;
#X connect 5 0 0 0;
#X connect 6 0 5 0;
#X connect 7 0 3 0;
#X restore 60 395 pd env4pow;
#X obj 30 83 unpack f f;
#X obj 125 417 *~;
#X obj 30 240 swap 1;
#X obj 124 439 lop~ 120;
#X obj 30 263 /;
#X obj 30 189 + 0.4;
#X obj 124 465 *~;
#X obj 186 395 swap 1;
#X obj 186 418 -;
#X obj 30 168 t f f f;
#X obj 186 439 + 0.1;
#X obj 141 179 / 3;
#X obj 141 199 + 0.6;
#X obj 60 440 +~;
#X obj 306 88 inlet base;
#X obj 306 138 * 2;
#X obj 76 274 *;
#X obj 76 296 +;
#X obj 225 128 swap 1;
#X obj 226 153 -;
#X obj 29 287 *;
#X obj 306 113 * 300;
#X obj 224 177 * 20;
#X obj 33 352 expcurve~ 100;
#X obj 60 417 *~ 1000;
#X connect 0 0 1 0;
#X connect 1 0 3 0;
#X connect 2 0 5 0;
#X connect 4 1 6 0;
#X connect 5 0 14 0;
#X connect 5 1 16 0;
#X connect 6 0 8 0;
#X connect 7 0 9 0;
#X connect 7 1 9 1;
#X connect 8 0 11 0;
#X connect 9 0 25 0;
#X connect 10 0 7 0;
#X connect 11 0 1 1;
#X connect 12 0 13 0;
#X connect 12 1 13 1;
#X connect 13 0 15 0;
#X connect 14 0 10 0;
#X connect 14 1 21 0;
#X connect 14 2 12 0;
#X connect 15 0 11 1;
#X connect 16 0 17 0;
#X connect 17 0 6 1;
#X connect 18 0 0 0;
#X connect 19 0 23 0;
#X connect 19 0 26 0;
#X connect 20 0 21 1;
#X connect 21 0 22 0;
#X connect 22 0 18 1;
#X connect 23 0 24 0;
#X connect 23 1 24 0;
#X connect 24 0 27 0;
#X connect 25 0 4 0;
#X connect 25 0 28 0;
#X connect 26 0 20 0;
#X connect 26 0 22 1;
#X connect 27 0 25 1;
#X connect 28 0 29 0;
#X connect 29 0 18 0;
#X restore 96 388 pd bubble;
#X obj 224 159 random 1000;
#X obj 224 182 / 1000;
#X obj 139 159 random 1000;
#X obj 139 182 / 1000;
#X obj 0 137 random 100;
#X obj 113 75 metro 20;
#X obj 0 182 > 70;
#X obj 126 326 inlet average pitch;
#X obj 113 54 loadbang;
#X obj -1 419 outlet~;
#X obj 0 249 f;
#X obj 30 249 + 1;
#X obj 0 274 mod 4;
#X obj 113 101 t b b b b;
#X obj 0 211 sel 1;
#X obj 0 326 route 0 1 2 3;
#X obj 0 301 pack f f f;
#X obj 0 388 bubblesound2;
#X obj 23 158 inlet intensity;
#X connect 0 0 10 0;
#X connect 1 0 2 0;
#X connect 2 0 17 2;
#X connect 3 0 4 0;
#X connect 4 0 17 1;
#X connect 5 0 7 0;
#X connect 6 0 14 0;
#X connect 7 0 15 0;
#X connect 8 0 0 1;
#X connect 8 0 18 1;
#X connect 9 0 6 0;
#X connect 11 0 12 0;
#X connect 11 0 13 0;
#X connect 12 0 11 1;
#X connect 13 0 17 0;
#X connect 14 0 5 0;
#X connect 14 1 3 0;
#X connect 14 2 1 0;
#X connect 15 0 11 0;
#X connect 16 0 18 0;
#X connect 16 0 0 0;
#X connect 17 0 16 0;
#X connect 18 0 10 0;
#X connect 19 0 7 1;
#X restore 34 62 pd dripfactory;
#X obj 129 7 loadbang;
#X msg 129 41 0.01;
#X msg 34 38 90;
#X obj 34 147 cmverb~;
#X msg 175 39 110;
#X obj 79 171 *~ 0.1;
#X obj 26 190 *~ 0.1;
#X obj 34 89 *~ 0.23;
#X msg 210 38 6;
#X connect 1 0 9 0;
#X connect 2 0 4 0;
#X connect 2 0 3 0;
#X connect 2 0 6 0;
#X connect 2 0 10 0;
#X connect 3 0 1 1;
#X connect 4 0 1 0;
#X connect 5 0 8 0;
#X connect 5 1 7 0;
#X connect 6 0 5 2;
#X connect 7 0 0 1;
#X connect 8 0 0 0;
#X connect 9 0 5 0;
#X connect 9 0 5 1;
#X connect 9 0 0 0;
#X connect 9 0 0 1;
#X connect 10 0 5 3;
